<?xml version="1.0" encoding="UTF-8" standalone="no"?><svg xmlns="http://www.w3.org/2000/svg" xmlns:xlink="http://www.w3.org/1999/xlink" contentScriptType="application/ecmascript" contentStyleType="text/css" height="490px" preserveAspectRatio="none" style="width:1343px;height:490px;background:#FFFFFF;" version="1.1" viewBox="0 0 1343 490" width="1343px" zoomAndPan="magnify"><defs><filter height="300%" id="f1eizwhi7dvehc" width="300%" x="-1" y="-1"><feGaussianBlur result="blurOut" stdDeviation="2.0"/><feColorMatrix in="blurOut" result="blurOut2" type="matrix" values="0 0 0 0 0 0 0 0 0 0 0 0 0 0 0 0 0 0 .4 0"/><feOffset dx="4.0" dy="4.0" in="blurOut2" result="blurOut3"/><feBlend in="SourceGraphic" in2="blurOut3" mode="normal"/></filter></defs><g><line style="stroke:#A80036;stroke-width:1.0;stroke-dasharray:5.0,5.0;" x1="33" x2="33" y1="88.2969" y2="406.2266"/><line style="stroke:#A80036;stroke-width:1.0;stroke-dasharray:5.0,5.0;" x1="494" x2="494" y1="88.2969" y2="406.2266"/><line style="stroke:#A80036;stroke-width:1.0;stroke-dasharray:5.0,5.0;" x1="867.5" x2="867.5" y1="88.2969" y2="406.2266"/><line style="stroke:#A80036;stroke-width:1.0;stroke-dasharray:5.0,5.0;" x1="1312" x2="1312" y1="88.2969" y2="406.2266"/><text fill="#000000" font-family="sans-serif" font-size="14" lengthAdjust="spacing" textLength="51" x="5" y="84.9951">Usuário</text><ellipse cx="33.5" cy="15" fill="#FEFECE" filter="url(#f1eizwhi7dvehc)" rx="8" ry="8" style="stroke:#A80036;stroke-width:2.0;"/><path d="M33.5,23 L33.5,50 M20.5,31 L46.5,31 M33.5,50 L20.5,65 M33.5,50 L46.5,65 " fill="none" filter="url(#f1eizwhi7dvehc)" style="stroke:#A80036;stroke-width:2.0;"/><text fill="#000000" font-family="sans-serif" font-size="14" lengthAdjust="spacing" textLength="51" x="5" y="418.2217">Usuário</text><ellipse cx="33.5" cy="431.5234" fill="#FEFECE" filter="url(#f1eizwhi7dvehc)" rx="8" ry="8" style="stroke:#A80036;stroke-width:2.0;"/><path d="M33.5,439.5234 L33.5,466.5234 M20.5,447.5234 L46.5,447.5234 M33.5,466.5234 L20.5,481.5234 M33.5,466.5234 L46.5,481.5234 " fill="none" filter="url(#f1eizwhi7dvehc)" style="stroke:#A80036;stroke-width:2.0;"/><rect fill="#FEFECE" filter="url(#f1eizwhi7dvehc)" height="30.2969" style="stroke:#A80036;stroke-width:1.5;" width="83" x="451" y="53"/><text fill="#000000" font-family="sans-serif" font-size="14" lengthAdjust="spacing" textLength="69" x="458" y="72.9951">Iniciadora</text><rect fill="#FEFECE" filter="url(#f1eizwhi7dvehc)" height="30.2969" style="stroke:#A80036;stroke-width:1.5;" width="83" x="451" y="405.2266"/><text fill="#000000" font-family="sans-serif" font-size="14" lengthAdjust="spacing" textLength="69" x="458" y="425.2217">Iniciadora</text><rect fill="#FEFECE" filter="url(#f1eizwhi7dvehc)" height="30.2969" style="stroke:#A80036;stroke-width:1.5;" width="114" x="808.5" y="53"/><text fill="#000000" font-family="sans-serif" font-size="14" lengthAdjust="spacing" textLength="100" x="815.5" y="72.9951">Detentora OB</text><rect fill="#FEFECE" filter="url(#f1eizwhi7dvehc)" height="30.2969" style="stroke:#A80036;stroke-width:1.5;" width="114" x="808.5" y="405.2266"/><text fill="#000000" font-family="sans-serif" font-size="14" lengthAdjust="spacing" textLength="100" x="815.5" y="425.2217">Detentora OB</text><rect fill="#FEFECE" filter="url(#f1eizwhi7dvehc)" height="30.2969" style="stroke:#A80036;stroke-width:1.5;" width="37" x="1292" y="53"/><text fill="#000000" font-family="sans-serif" font-size="14" lengthAdjust="spacing" textLength="23" x="1299" y="72.9951">PIX</text><rect fill="#FEFECE" filter="url(#f1eizwhi7dvehc)" height="30.2969" style="stroke:#A80036;stroke-width:1.5;" width="37" x="1292" y="405.2266"/><text fill="#000000" font-family="sans-serif" font-size="14" lengthAdjust="spacing" textLength="23" x="1299" y="425.2217">PIX</text><polygon fill="#A80036" points="482.5,115.4297,492.5,119.4297,482.5,123.4297,486.5,119.4297" style="stroke:#A80036;stroke-width:1.0;"/><line style="stroke:#A80036;stroke-width:1.0;" x1="33.5" x2="488.5" y1="119.4297" y2="119.4297"/><text fill="#000000" font-family="sans-serif" font-size="13" lengthAdjust="spacing" textLength="437" x="40.5" y="114.3638">1. Solicitar revogação do consentimento para pagamento agendado</text><polygon fill="#A80036" points="855.5,144.5625,865.5,148.5625,855.5,152.5625,859.5,148.5625" style="stroke:#A80036;stroke-width:1.0;"/><line style="stroke:#A80036;stroke-width:1.0;" x1="494.5" x2="861.5" y1="148.5625" y2="148.5625"/><text fill="#000000" font-family="sans-serif" font-size="13" lengthAdjust="spacing" textLength="349" x="501.5" y="143.4966">1.1 Criar a solicitação de revogação de consentimento</text><polygon fill="#A80036" points="1300.5,173.6953,1310.5,177.6953,1300.5,181.6953,1304.5,177.6953" style="stroke:#A80036;stroke-width:1.0;"/><line style="stroke:#A80036;stroke-width:1.0;" x1="867.5" x2="1306.5" y1="177.6953" y2="177.6953"/><text fill="#000000" font-family="sans-serif" font-size="13" lengthAdjust="spacing" textLength="210" x="874.5" y="172.6294">1.1.1 Cancelar agendamento PIX</text><polygon fill="#A80036" points="878.5,187.6953,868.5,191.6953,878.5,195.6953,874.5,191.6953" style="stroke:#A80036;stroke-width:1.0;"/><line style="stroke:#A80036;stroke-width:1.0;stroke-dasharray:2.0,2.0;" x1="872.5" x2="1311.5" y1="191.6953" y2="191.6953"/><line style="stroke:#A80036;stroke-width:1.0;" x1="867.5" x2="909.5" y1="220.8281" y2="220.8281"/><line style="stroke:#A80036;stroke-width:1.0;" x1="909.5" x2="909.5" y1="220.8281" y2="233.8281"/><line style="stroke:#A80036;stroke-width:1.0;" x1="868.5" x2="909.5" y1="233.8281" y2="233.8281"/><polygon fill="#A80036" points="878.5,229.8281,868.5,233.8281,878.5,237.8281,874.5,233.8281" style="stroke:#A80036;stroke-width:1.0;"/><text fill="#000000" font-family="sans-serif" font-size="13" lengthAdjust="spacing" textLength="269" x="874.5" y="215.7622">1.1.2 Marcar o pagamento como rejeitado</text><line style="stroke:#A80036;stroke-width:1.0;" x1="867.5" x2="909.5" y1="262.9609" y2="262.9609"/><line style="stroke:#A80036;stroke-width:1.0;" x1="909.5" x2="909.5" y1="262.9609" y2="275.9609"/><line style="stroke:#A80036;stroke-width:1.0;" x1="868.5" x2="909.5" y1="275.9609" y2="275.9609"/><polygon fill="#A80036" points="878.5,271.9609,868.5,275.9609,878.5,279.9609,874.5,275.9609" style="stroke:#A80036;stroke-width:1.0;"/><text fill="#000000" font-family="sans-serif" font-size="13" lengthAdjust="spacing" textLength="296" x="874.5" y="257.895">1.1.3 Marcar o consentimento como revogado</text><line style="stroke:#A80036;stroke-width:1.0;" x1="867.5" x2="909.5" y1="305.0938" y2="305.0938"/><line style="stroke:#A80036;stroke-width:1.0;" x1="909.5" x2="909.5" y1="305.0938" y2="318.0938"/><line style="stroke:#A80036;stroke-width:1.0;" x1="868.5" x2="909.5" y1="318.0938" y2="318.0938"/><polygon fill="#A80036" points="878.5,314.0938,868.5,318.0938,878.5,322.0938,874.5,318.0938" style="stroke:#A80036;stroke-width:1.0;"/><text fill="#000000" font-family="sans-serif" font-size="13" lengthAdjust="spacing" textLength="419" x="874.5" y="300.0278">1.1.4 Cancelar os tokens de acesso vinculados ao consentimento</text><line style="stroke:#A80036;stroke-width:1.0;" x1="867.5" x2="909.5" y1="347.2266" y2="347.2266"/><line style="stroke:#A80036;stroke-width:1.0;" x1="909.5" x2="909.5" y1="347.2266" y2="360.2266"/><line style="stroke:#A80036;stroke-width:1.0;" x1="868.5" x2="909.5" y1="360.2266" y2="360.2266"/><polygon fill="#A80036" points="878.5,356.2266,868.5,360.2266,878.5,364.2266,874.5,360.2266" style="stroke:#A80036;stroke-width:1.0;"/><text fill="#000000" font-family="sans-serif" font-size="13" lengthAdjust="spacing" textLength="431" x="874.5" y="342.1606">1.1.4 Armazenar a revogação do consentimento como completada</text><polygon fill="#A80036" points="505.5,370.2266,495.5,374.2266,505.5,378.2266,501.5,374.2266" style="stroke:#A80036;stroke-width:1.0;"/><line style="stroke:#A80036;stroke-width:1.0;stroke-dasharray:2.0,2.0;" x1="499.5" x2="866.5" y1="374.2266" y2="374.2266"/><polygon fill="#A80036" points="44.5,384.2266,34.5,388.2266,44.5,392.2266,40.5,388.2266" style="stroke:#A80036;stroke-width:1.0;"/><line style="stroke:#A80036;stroke-width:1.0;stroke-dasharray:2.0,2.0;" x1="38.5" x2="493.5" y1="388.2266" y2="388.2266"/><!--MD5=[75ff5390f87bec2b686579793df24fe0]
@startuml
actor       "Usuário"       as usuario
participant Iniciadora      as iniciadora
participant "Detentora OB"  as detentora
participant PIX             as pix

usuario -> iniciadora: 1. Solicitar revogação do consentimento para pagamento agendado
iniciadora -> detentora: 1.1 Criar a solicitação de revogação de consentimento
detentora -> pix: 1.1.1 Cancelar agendamento PIX
detentora <- - pix

detentora -> detentora: 1.1.2 Marcar o pagamento como rejeitado
detentora -> detentora: 1.1.3 Marcar o consentimento como revogado
detentora -> detentora: 1.1.4 Cancelar os tokens de acesso vinculados ao consentimento
detentora -> detentora: 1.1.4 Armazenar a revogação do consentimento como completada

iniciadora <- - detentora
usuario <- - iniciadora
@enduml

PlantUML version 1.2021.12(Tue Oct 05 16:01:58 UTC 2021)
(GPL source distribution)
Java Runtime: Java(TM) SE Runtime Environment
JVM: Java HotSpot(TM) 64-Bit Server VM
Default Encoding: UTF-8
Language: en
Country: US
--></g></svg>